<svg xmlns="http://www.w3.org/2000/svg" width="232.014" height="232.014" viewBox="0 0 232.014 232.014"><defs><style>.cls-1{fill:#efefef;stroke-miterlimit:10;}.cls-1,.cls-2{stroke:#fff;}.cls-2{fill:none;stroke-linejoin:round;stroke-width:3px;}.cls-3{fill:#3e3a39;}.cls-4{fill:#727171;}</style></defs><title>click-to-select</title><g id="レイヤー_2" data-name="レイヤー 2"><g id="レイヤー_1-2" data-name="レイヤー 1"><rect class="cls-1" x="0.5" y="0.5" width="231.014" height="231.014"/><path class="cls-2" d="M73.754,81.409a1.326,1.326,0,0,1-.3.276c-2.062,6.362-5.283,10.447-10.7,13.2a5.121,5.121,0,0,0-1-1.08,18.446,18.446,0,0,0,9.956-11.625H64.7a20.152,20.152,0,0,1-4.4,4.85,7.69,7.69,0,0,0-1.119-.9A19.953,19.953,0,0,0,65.446,77.6l1.866.53c-.078.2-.314.255-.569.255-.393.864-.8,1.689-1.257,2.474H72.4l.235-.117Z"/><path class="cls-2" d="M81.239,88.538V78.994l1.866.117c-.019.177-.157.315-.471.354v9.073ZM92.178,78.229c-.02.2-.157.294-.471.333v6.245c0,4.124-1.414,7.894-7.051,10.074a5.762,5.762,0,0,0-1.021-1.061c5.44-2.022,6.658-5.38,6.658-9.013v-6.7Z"/><path class="cls-2" d="M100.8,82.942a21.269,21.269,0,0,1,1.473,4.221l-1.1.3a21.96,21.96,0,0,0-1.433-4.182Zm11.724.137c-.039.177-.236.216-.413.2-1.531,5.734-4.418,9.249-9.171,11.173a5.328,5.328,0,0,0-.765-.9c4.693-1.846,7.384-5.066,8.817-10.919ZM105.575,82a26.978,26.978,0,0,1,.923,4.457l-1.159.217a23.675,23.675,0,0,0-.922-4.419Z"/><path class="cls-2" d="M132.68,81.409a1.326,1.326,0,0,1-.3.276c-2.062,6.362-5.282,10.447-10.7,13.2a5.121,5.121,0,0,0-1-1.08,18.446,18.446,0,0,0,9.956-11.625h-7.01a20.194,20.194,0,0,1-4.4,4.85,7.7,7.7,0,0,0-1.12-.9,19.963,19.963,0,0,0,6.265-8.523l1.865.53c-.078.2-.314.255-.569.255-.393.864-.8,1.689-1.257,2.474h6.913l.235-.117Z"/><path class="cls-2" d="M142.777,77.973c-.039.235-.215.373-.608.432-.157,2.278-.353,7.482-.353,10.388,0,2.927,1.453,4.341,3.927,4.341,2.4,0,4.831-1.2,7.07-3.732a7.786,7.786,0,0,0,.883,1.159,10.647,10.647,0,0,1-7.973,3.986c-3.574,0-5.4-2.062-5.4-5.773,0-2.474.177-8.562.314-10.978Z"/><path class="cls-2" d="M156.9,79.779c1.473-.058,13.57-.922,16.124-.942l.019,1.473c-.255-.02-.491-.02-.726-.02a5.653,5.653,0,0,0-3.359,1c-2.946,1.767-5.793,4.929-5.793,7.462,0,2.749,1.924,4.38,6.8,5.008l-.648,1.375c-5.578-.806-7.659-2.887-7.659-6.383,0-2.769,2.729-6.127,6.323-8.386-2.081.138-7.953.59-10.486.825a.6.6,0,0,1-.432.315Z"/><path class="cls-2" d="M77.764,103.444H95.32V104.7H87.131v2.337h4.183v8.936H81.691v-8.936H85.8V104.7H77.764Zm15.71,14.395V106.822l1.669.1c-.019.138-.117.235-.373.275v13.119h-1.3V119.1H79.669v1.276h-1.3v-13.55l1.67.1c-.02.138-.118.235-.373.275v10.644ZM82.83,108.177v2.769h3.044v-2.769Zm0,3.849v2.808h3.044v-2.808Zm7.305-1.08v-2.769H87.052v2.769Zm0,3.888v-2.808H87.052v2.808Z"/><path class="cls-2" d="M99.35,109.237a22.977,22.977,0,0,1-2.062,3.143,11.178,11.178,0,0,0-.648-1.277,26.789,26.789,0,0,0,4.32-8.857l1.551.491c-.058.138-.2.216-.451.216a38.96,38.96,0,0,1-1.512,3.889l.452.137c-.04.137-.138.216-.374.255v13.158H99.35Zm10.9,1.2a20.116,20.116,0,0,0,1.021,2.945,22.757,22.757,0,0,0,2.887-2.3l1.159.963a.527.527,0,0,1-.413.078,29.262,29.262,0,0,1-3.162,2.2,9.71,9.71,0,0,0,3.692,4.105,4.73,4.73,0,0,0-.883,1.08c-2.671-1.689-4.5-5.106-5.46-9.072H108.7a12.3,12.3,0,0,1-1.335.9,7.667,7.667,0,0,1,2.789,5.694c0,2-.962,3.359-2.946,3.359-.432,0-1-.02-1.571-.059a2.973,2.973,0,0,0-.334-1.159,14.137,14.137,0,0,0,1.65.1,1.817,1.817,0,0,0,1.257-.334,2.454,2.454,0,0,0,.746-2.023,4.95,4.95,0,0,0-.079-.9,23.785,23.785,0,0,1-6.618,3.868,4.513,4.513,0,0,0-.766-.981,20.329,20.329,0,0,0,7.07-4.027,7.163,7.163,0,0,0-.648-1.276,21.753,21.753,0,0,1-5.322,2.867,4.56,4.56,0,0,0-.707-.942,17.985,17.985,0,0,0,5.459-2.71,8.03,8.03,0,0,0-.922-.923,26.665,26.665,0,0,1-3.967,1.727,7.577,7.577,0,0,0-.727-.883,21.556,21.556,0,0,0,5.145-2.3h-3.928v-3.1c-.235.217-.49.413-.746.61a3.225,3.225,0,0,0-.962-.747,14.719,14.719,0,0,0,4.418-5.046l1.552.254c-.019.138-.137.236-.393.236-.137.256-.294.511-.471.786h3.77a1,1,0,0,0,.55-.079l.963.629a.376.376,0,0,1-.275.136,13.686,13.686,0,0,1-1.355,1.906h4.556v4.419Zm-6.088-3.4v2.4h3.888v-2.4Zm4.36-1.021a10.5,10.5,0,0,0,1.158-1.552h-4.065c-.392.511-.824,1.041-1.3,1.552Zm4.752,3.417v-2.4h-4.025v2.4Z"/><path class="cls-2" d="M120.583,109.984v6.48c1.531,2.356,4.438,2.356,7.816,2.356,2.258,0,5.007-.058,6.637-.156a4.3,4.3,0,0,0-.432,1.257c-1.355.039-3.535.078-5.518.078-4.379,0-7.109,0-9.053-2.435-.864.883-1.787,1.748-2.514,2.435a.279.279,0,0,1-.177.3l-.746-1.336c.825-.647,1.846-1.512,2.73-2.356V111.24h-2.533v-1.256Zm-2.612-7.384a13.784,13.784,0,0,1,3.1,3.319l-1.1.766a13.284,13.284,0,0,0-3.024-3.417Zm16.771,11.056v1.061H121.466v-1.061h3.673v-1.964h-2.867v-1.06h2.867v-1.571l1.649.118c-.019.137-.137.235-.392.255v1.2h3.318v-1.571l1.65.118c-.02.137-.137.235-.393.274v1.179h2.966v1.06h-2.966v1.964Zm-9.034-8.385V103.9h-3.967v-.962h5.126v3.3h-3.5v1.08c0,.373.1.452.727.452h2.239c.471,0,.569-.118.608-1.022a3.187,3.187,0,0,0,1,.373c-.118,1.3-.452,1.611-1.453,1.611H124c-1.395,0-1.768-.255-1.768-1.4v-2.061Zm1.67,10.152a.348.348,0,0,1-.413.138,18.511,18.511,0,0,1-4.105,2.474,7.071,7.071,0,0,0-.9-.8,13.383,13.383,0,0,0,4.007-2.377Zm-.982-3.731v1.964h3.318v-1.964Zm6.048-6.421V103.9h-4.222v-.962h5.4v3.3h-3.711v1.08c0,.373.117.452.824.452h2.455c.511,0,.609-.118.649-1.1a4.22,4.22,0,0,0,1.02.373c-.137,1.355-.471,1.689-1.512,1.689h-2.71c-1.472,0-1.865-.255-1.865-1.414v-2.042Zm-2.4,9.583a24.927,24.927,0,0,1,4.517,2.573l-1.3.608a20.772,20.772,0,0,0-4.163-2.572Z"/><path class="cls-2" d="M143.092,111.986l-2.377.845v5.931c0,1.414-.647,1.63-3.259,1.591a5.714,5.714,0,0,0-.432-1.218c.923.019,1.767.019,2.023.019.255-.019.373-.1.373-.373V113.3c-.923.313-1.768.608-2.436.824a.32.32,0,0,1-.235.315l-.55-1.552c.884-.236,2-.57,3.221-.943v-4.615h-2.985V106.1h2.985v-3.968l1.689.1c-.02.157-.118.235-.394.275V106.1h2.259v1.236h-2.259v4.2l2.2-.687Zm10.506-.863h-3.967c.786,3.653,2.4,6.775,5.047,8.111a5.423,5.423,0,0,0-.943,1.158c-2.886-1.65-4.555-5.047-5.419-9.269h-2.671c-.1,3.064-.687,6.814-3.083,9.348a4.389,4.389,0,0,0-1-.9c2.533-2.69,2.789-6.559,2.789-9.583v-6.913H153.6Zm-1.316-6.775h-6.617v5.518h6.617Z"/><path class="cls-2" d="M48.86,146.49c0,1.321.2,3.18,2.355,3.18,2.25,0,2.355-2.085,2.355-3.149v-5.536c0-1.125-.12-1.229-1.065-1.229v-.615h2.939v.615c-.929,0-1.034.12-1.034,1.229v5.686a4.04,4.04,0,0,1-.9,2.939,3.411,3.411,0,0,1-2.625.946c-3.51,0-3.87-2-3.87-4.005v-5.566c0-1.109-.09-1.229-1.095-1.229v-.615h4v.615c-.975,0-1.065.09-1.065,1.229Z"/><path class="cls-2" d="M59,149.7v2.866c0,1,.089,1.125.915,1.125v.524H56.36v-.524c.87,0,.93-.135.93-1.125V144.9c0-1.005-.045-1.14-.93-1.14v-.481a7.478,7.478,0,0,0,2.34-.719l.2.12.06.915h.029a2.8,2.8,0,0,1,2.25-1.035c1.755,0,3.061,1.395,3.061,3.9,0,3.449-1.951,4.05-3.195,4.05a2.761,2.761,0,0,1-2.07-.811Zm0-.884a2.193,2.193,0,0,0,1.694.974c1.755,0,1.77-2.534,1.77-3.375,0-.659-.029-3.09-1.739-3.09A2.32,2.32,0,0,0,59,144.391Z"/><path class="cls-2" d="M65.285,149.806c.96,0,1.034-.165,1.034-1.186v-7.679c0-.945-.074-1.081-1.034-1.081v-.479a8.066,8.066,0,0,0,2.534-.72l.21.12v9.855c0,1,.06,1.17.96,1.17v.524h-3.7Z"/><path class="cls-2" d="M69.92,146.49c0-2.264,1.08-3.929,3.7-3.929,2.8,0,3.7,1.875,3.7,3.929a4.106,4.106,0,0,1-1.02,3.12,3.769,3.769,0,0,1-2.684.916C71.42,150.526,69.92,149.415,69.92,146.49Zm1.8.045c0,1.516.27,3.375,1.889,3.375,1.5,0,1.891-1.559,1.891-3.375,0-1.694-.33-3.375-1.891-3.375C71.975,143.16,71.72,145.006,71.72,146.535Z"/><path class="cls-2" d="M83.029,144.78c0-1.154-.45-1.62-1.3-1.62a1.548,1.548,0,0,0-1.5,1.186.721.721,0,0,1-.78.51.577.577,0,0,1-.645-.616c0-.75.945-1.679,3.045-1.679,1.545,0,2.91.405,2.91,2.535v3.614c0,.78.165,1.1.48,1.1a.82.82,0,0,0,.435-.12l.12.509a3.376,3.376,0,0,1-1.32.225,1.2,1.2,0,0,1-1.335-.84h-.06a3.057,3.057,0,0,1-2.37.946,2.065,2.065,0,0,1-1.184-3.871,7.8,7.8,0,0,1,2.489-.929l1.02-.255Zm0,1.276c-1.35.405-2.79.96-2.79,2.22,0,1.184.766,1.394,1.275,1.394a2.084,2.084,0,0,0,1.515-.75Z"/><path class="cls-2" d="M91.774,143.325v-2.354c0-.945-.06-1.111-.96-1.111v-.479a6.781,6.781,0,0,0,2.46-.72l.21.1v10.05c0,.929.105,1,.825,1.019v.45a9.2,9.2,0,0,0-2.3.241l-.135-.106-.06-.824h-.03a2.645,2.645,0,0,1-2.07.915c-1.68,0-3.195-1.17-3.195-4.08,0-2.01.99-3.87,3.375-3.87a2.5,2.5,0,0,1,1.845.764Zm0,.931a1.965,1.965,0,0,0-1.545-1c-1.785,0-1.89,2.22-1.89,3.284,0,2.085.78,3.271,1.83,3.271a2.089,2.089,0,0,0,1.605-1.021Z"/><path class="cls-2" d="M101.959,142.666v5.97c0,1.034.075,1.17.96,1.17v.524h-3.7v-.524c.96,0,1.02-.136,1.02-1.186v-3.75c0-1.05-.045-1.109-1.02-1.109v-.481a7.746,7.746,0,0,0,2.55-.719Zm.075-2.085a1.036,1.036,0,0,1-1.02,1.14,1.139,1.139,0,1,1,1.02-1.14Z"/><path class="cls-2" d="M110.794,143.865a3.224,3.224,0,0,1,2.46-1.3c1.095,0,2.16.54,2.16,2.625V148.7c0,.991.09,1.111.8,1.111v.524h-3.285v-.524c.675,0,.78-.12.78-1.05v-3.45c0-1.021-.195-1.965-1.095-1.965-.675,0-1.215.51-1.725,1.29V148.7c0,1.021.09,1.111.78,1.111v.524h-3.255v-.524c.7,0,.765-.106.765-1.05v-3.405c0-.781-.045-2.01-1.08-2.01-.555,0-1.095.465-1.725,1.3v4.035c0,1.019.075,1.125.78,1.125v.524H103.7v-.524c.885,0,.96-.12.96-1.186V144.9c0-1.02-.09-1.156-.96-1.14v-.481a7.126,7.126,0,0,0,2.355-.719l.225.12.06,1.125h.015a3.284,3.284,0,0,1,2.37-1.245,1.915,1.915,0,0,1,2.01,1.3Z"/><path class="cls-2" d="M121.639,144.78c0-1.154-.45-1.62-1.3-1.62a1.548,1.548,0,0,0-1.5,1.186.721.721,0,0,1-.78.51.576.576,0,0,1-.645-.616c0-.75.945-1.679,3.045-1.679,1.545,0,2.909.405,2.909,2.535v3.614c0,.78.165,1.1.48,1.1a.818.818,0,0,0,.435-.12l.121.509a3.376,3.376,0,0,1-1.32.225,1.2,1.2,0,0,1-1.335-.84h-.06a3.057,3.057,0,0,1-2.37.946,2.065,2.065,0,0,1-1.185-3.871,7.81,7.81,0,0,1,2.49-.929l1.02-.255Zm0,1.276c-1.35.405-2.79.96-2.79,2.22,0,1.184.765,1.394,1.275,1.394a2.084,2.084,0,0,0,1.515-.75Z"/><path class="cls-2" d="M131.313,143.506a2.432,2.432,0,0,1,.78,1.845c0,1.905-1.484,2.819-3.27,2.819a4.143,4.143,0,0,1-1.56-.284c-.4.269-.645.524-.645.84,0,.434.435.66,1.321.66h1.71c2.414,0,3.209,1.064,3.209,2.2,0,1.62-1.695,2.79-4.245,2.79-2.234,0-3.7-.63-3.7-1.935,0-.974.9-1.65,1.8-2-.645-.149-1.261-.554-1.261-1.259,0-.72.616-1.17,1.275-1.545a2.619,2.619,0,0,1-1.275-2.281c0-1.784,1.411-2.8,3.3-2.8a3.981,3.981,0,0,1,1.994.48l2.13-.285v.87Zm-3.87,7.17a1.991,1.991,0,0,0-1.125,1.59c0,.915.916,1.514,2.371,1.514,1.739,0,2.759-.825,2.759-1.785,0-.63-.4-1.319-2.069-1.319Zm2.9-5.325c0-1.125-.48-2.191-1.576-2.191-1.049,0-1.574,1.066-1.574,2.191,0,1.335.6,2.205,1.605,2.205C129.873,147.556,130.339,146.6,130.339,145.351Z"/><path class="cls-2" d="M140.448,148.681a3.286,3.286,0,0,1-3.059,1.845c-1.845,0-3.66-.916-3.66-4.156,0-1.934,1.065-3.809,3.48-3.809,2.759,0,3.255,2.5,3.255,3.9h-4.92a4.563,4.563,0,0,0,.54,2.459,1.892,1.892,0,0,0,1.6.915,2.431,2.431,0,0,0,2.205-1.425Zm-1.739-2.835c0-.856-.136-2.686-1.516-2.686-.7,0-1.589.571-1.649,2.686Z"/><path class="cls-2" d="M141.948,148.08c.375,1.41,1.051,1.83,2.04,1.83,1.23,0,1.59-.795,1.59-1.3a1.065,1.065,0,0,0-.3-.781,7.267,7.267,0,0,0-1.529-.929,7.1,7.1,0,0,1-1.636-1.111,1.986,1.986,0,0,1-.5-1.29c0-.974.841-1.934,2.926-1.934a5.95,5.95,0,0,1,2.1.344c.06.451.12.946.285,1.71l-.555.106c-.255-1.2-.72-1.561-1.664-1.561-.571,0-1.426.271-1.426.991a1.232,1.232,0,0,0,.63.959c.48.271,1.2.555,1.575.811,1.215.63,1.875,1.4,1.875,2.3,0,1.274-1.14,2.31-3.18,2.31a6,6,0,0,1-2.46-.465c-.09-.66-.2-1.215-.329-1.861Z"/><path class="cls-2" d="M152.314,149.806c.869,0,.96-.136.96-1.186v-7.664c0-.975-.1-1.1-.946-1.1v-.479a8.532,8.532,0,0,0,2.445-.72l.21.12v5.07h.03a3.409,3.409,0,0,1,2.565-1.29c2.25,0,2.25,1.86,2.25,2.715v3.36c0,1,.075,1.17.825,1.17v.524h-3.345v-.524c.735,0,.81-.106.81-1.186v-3.284c0-.99-.06-2-1.185-2-.66,0-1.32.585-1.95,1.394v3.9c0,1.064.075,1.17.765,1.17v.524h-3.434Z"/><path class="cls-2" d="M168.228,148.681a3.288,3.288,0,0,1-3.06,1.845c-1.845,0-3.66-.916-3.66-4.156,0-1.934,1.065-3.809,3.48-3.809,2.76,0,3.255,2.5,3.255,3.9h-4.92a4.563,4.563,0,0,0,.54,2.459,1.892,1.892,0,0,0,1.6.915,2.43,2.43,0,0,0,2.205-1.425Zm-1.74-2.835c0-.856-.135-2.686-1.515-2.686-.705,0-1.59.571-1.65,2.686Z"/><path class="cls-2" d="M171.858,143.82h.03c.659-.87,1.2-1.259,1.965-1.259a1.3,1.3,0,0,1,1.35,1.245c0,.45-.225.75-.615.75-.315,0-.555-.18-.706-.585-.149-.436-.27-.585-.54-.585-.449,0-.9.5-1.454,1.29v3.96c0,1,.1,1.17,1.11,1.17v.524h-3.765v-.524c.87,0,.945-.106.945-1.17v-3.795c0-.976-.09-1.08-.945-1.08v-.481a6.628,6.628,0,0,0,2.37-.719l.194.12Z"/><path class="cls-2" d="M182.687,148.681a3.287,3.287,0,0,1-3.059,1.845c-1.846,0-3.661-.916-3.661-4.156,0-1.934,1.065-3.809,3.48-3.809,2.76,0,3.255,2.5,3.255,3.9h-4.92a4.572,4.572,0,0,0,.54,2.459,1.892,1.892,0,0,0,1.6.915,2.43,2.43,0,0,0,2.205-1.425Zm-1.74-2.835c0-.856-.135-2.686-1.515-2.686-.7,0-1.59.571-1.65,2.686Z"/><path class="cls-2" d="M185.867,149.521a.96.96,0,1,1-.96-.991A.964.964,0,0,1,185.867,149.521Z"/><path class="cls-3" d="M73.753,81.41a1.322,1.322,0,0,1-.3.275c-2.062,6.363-5.282,10.448-10.7,13.2a5.071,5.071,0,0,0-1-1.08,18.449,18.449,0,0,0,9.957-11.626H64.7a20.154,20.154,0,0,1-4.4,4.85,7.768,7.768,0,0,0-1.12-.9A19.954,19.954,0,0,0,65.446,77.6l1.866.53c-.079.2-.315.255-.57.255-.393.864-.805,1.688-1.257,2.474H72.4l.235-.118Z"/><path class="cls-3" d="M81.239,88.538V78.994l1.866.118c-.02.177-.158.315-.472.354v9.072ZM92.177,78.229c-.019.2-.157.3-.471.334v6.245c0,4.124-1.414,7.894-7.05,10.074a5.7,5.7,0,0,0-1.021-1.061c5.44-2.022,6.657-5.38,6.657-9.013v-6.7Z"/><path class="cls-3" d="M100.8,82.942a21.219,21.219,0,0,1,1.474,4.222l-1.1.294a22.037,22.037,0,0,0-1.434-4.182Zm11.724.137c-.039.177-.235.216-.412.2-1.532,5.734-4.419,9.25-9.171,11.173a5.375,5.375,0,0,0-.766-.9c4.694-1.846,7.384-5.066,8.818-10.918ZM105.575,82a26.989,26.989,0,0,1,.923,4.458l-1.159.216a23.68,23.68,0,0,0-.923-4.419Z"/><path class="cls-3" d="M132.679,81.41a1.28,1.28,0,0,1-.3.275c-2.062,6.363-5.282,10.448-10.7,13.2a5.1,5.1,0,0,0-1-1.08,18.449,18.449,0,0,0,9.957-11.626h-7.011a20.134,20.134,0,0,1-4.4,4.85,7.757,7.757,0,0,0-1.119-.9,19.952,19.952,0,0,0,6.264-8.522l1.866.53c-.079.2-.315.255-.569.255-.393.864-.806,1.688-1.257,2.474h6.912l.236-.118Z"/><path class="cls-3" d="M142.777,77.974c-.039.235-.216.373-.608.431-.158,2.279-.354,7.483-.354,10.389,0,2.926,1.453,4.34,3.927,4.34,2.4,0,4.831-1.2,7.07-3.732a7.733,7.733,0,0,0,.884,1.16,10.653,10.653,0,0,1-7.973,3.986c-3.574,0-5.4-2.063-5.4-5.773,0-2.475.177-8.563.315-10.978Z"/><path class="cls-3" d="M156.9,79.78c1.473-.059,13.57-.922,16.123-.943l.02,1.474c-.256-.02-.492-.02-.727-.02a5.656,5.656,0,0,0-3.358,1c-2.946,1.768-5.793,4.93-5.793,7.463,0,2.749,1.924,4.379,6.794,5.008l-.648,1.374c-5.577-.805-7.659-2.887-7.659-6.382,0-2.77,2.73-6.127,6.324-8.386-2.082.138-7.953.589-10.487.825a.6.6,0,0,1-.432.314Z"/><path class="cls-3" d="M77.763,103.444H95.319V104.7H87.13v2.337h4.184v8.936H81.691v-8.936h4.1V104.7H77.763Zm15.711,14.395V106.822l1.669.1c-.02.137-.118.235-.373.274v13.119h-1.3V119.1H79.668v1.277h-1.3V106.822l1.669.1c-.019.137-.118.235-.373.274v10.644ZM82.83,108.178v2.768h3.044v-2.768Zm0,3.848v2.809h3.044v-2.809Zm7.305-1.08v-2.768H87.052v2.768Zm0,3.889v-2.809H87.052v2.809Z"/><path class="cls-3" d="M99.349,109.238a22.811,22.811,0,0,1-2.062,3.142,11,11,0,0,0-.648-1.276,26.809,26.809,0,0,0,4.321-8.857l1.551.49c-.059.138-.2.217-.452.217a38.462,38.462,0,0,1-1.512,3.888l.452.138c-.039.137-.138.215-.373.254v13.159H99.349Zm10.9,1.2a20.012,20.012,0,0,0,1.021,2.946,22.815,22.815,0,0,0,2.886-2.3l1.159.962a.522.522,0,0,1-.413.079,29.632,29.632,0,0,1-3.161,2.2,9.709,9.709,0,0,0,3.692,4.105,4.712,4.712,0,0,0-.884,1.08c-2.67-1.69-4.5-5.107-5.459-9.073H108.7a12.038,12.038,0,0,1-1.336.9,7.671,7.671,0,0,1,2.79,5.7c0,2-.963,3.359-2.946,3.359-.432,0-1-.02-1.572-.06a2.971,2.971,0,0,0-.333-1.158,14.322,14.322,0,0,0,1.649.1,1.822,1.822,0,0,0,1.257-.333,2.456,2.456,0,0,0,.746-2.024,4.952,4.952,0,0,0-.078-.9,23.8,23.8,0,0,1-6.618,3.869,4.55,4.55,0,0,0-.766-.982,20.336,20.336,0,0,0,7.07-4.026,7.1,7.1,0,0,0-.648-1.276,21.794,21.794,0,0,1-5.323,2.867,4.465,4.465,0,0,0-.707-.942,17.993,17.993,0,0,0,5.46-2.711,8.2,8.2,0,0,0-.923-.923,26.582,26.582,0,0,1-3.967,1.728,7.484,7.484,0,0,0-.726-.883,21.577,21.577,0,0,0,5.145-2.3h-3.928v-3.1c-.235.216-.491.412-.746.609a3.262,3.262,0,0,0-.963-.747,14.706,14.706,0,0,0,4.419-5.046l1.552.254c-.02.138-.138.237-.393.237-.138.255-.3.511-.472.785h3.771a1.017,1.017,0,0,0,.55-.078l.962.628a.374.374,0,0,1-.275.137,13.805,13.805,0,0,1-1.355,1.906h4.556v4.418Zm-6.088-3.4v2.4h3.888v-2.4Zm4.359-1.02a10.68,10.68,0,0,0,1.159-1.552h-4.065c-.393.511-.825,1.041-1.3,1.552Zm4.753,3.417v-2.4h-4.026v2.4Z"/><path class="cls-3" d="M120.582,109.984v6.481c1.532,2.356,4.438,2.356,7.816,2.356,2.258,0,5.008-.058,6.638-.157a4.324,4.324,0,0,0-.432,1.257c-1.355.039-3.535.078-5.518.078-4.38,0-7.109,0-9.054-2.434-.864.883-1.787,1.748-2.513,2.434a.279.279,0,0,1-.177.3l-.746-1.335c.825-.648,1.846-1.513,2.729-2.356v-5.362h-2.533v-1.257ZM117.97,102.6a13.787,13.787,0,0,1,3.1,3.318l-1.1.766a13.279,13.279,0,0,0-3.024-3.417Zm16.771,11.055v1.061H121.466v-1.061h3.672v-1.964h-2.867v-1.06h2.867v-1.57l1.65.117c-.02.138-.137.236-.393.256v1.2h3.319v-1.57l1.649.117c-.019.138-.137.236-.392.275v1.178h2.965v1.06h-2.965v1.964Zm-9.033-8.385V103.9h-3.967v-.963h5.125v3.3h-3.5v1.08c0,.373.1.451.726.451h2.239c.471,0,.569-.117.609-1.021a3.205,3.205,0,0,0,1,.373c-.117,1.3-.451,1.611-1.453,1.611H124c-1.394,0-1.767-.256-1.767-1.395v-2.062Zm1.669,10.153a.347.347,0,0,1-.413.138,18.542,18.542,0,0,1-4.1,2.474,7.07,7.07,0,0,0-.9-.805,13.383,13.383,0,0,0,4.006-2.376Zm-.982-3.732v1.964h3.319v-1.964Zm6.048-6.421V103.9h-4.222v-.963h5.4v3.3H129.91v1.08c0,.373.118.451.825.451h2.455c.51,0,.608-.117.648-1.1a4.186,4.186,0,0,0,1.021.373c-.138,1.356-.471,1.69-1.512,1.69h-2.71c-1.473,0-1.866-.256-1.866-1.414v-2.043Zm-2.4,9.584a25.034,25.034,0,0,1,4.518,2.572l-1.3.609a20.7,20.7,0,0,0-4.163-2.573Z"/><path class="cls-3" d="M143.091,111.987l-2.376.845v5.931c0,1.413-.648,1.63-3.26,1.59a5.671,5.671,0,0,0-.432-1.217c.923.019,1.768.019,2.023.019.255-.019.373-.1.373-.373V113.3c-.923.314-1.768.609-2.435.825a.319.319,0,0,1-.236.314l-.55-1.551c.884-.236,2-.57,3.221-.943v-4.615h-2.985V106.1h2.985v-3.967l1.689.1c-.019.157-.118.236-.393.275V106.1h2.259v1.237h-2.259v4.2l2.2-.686Zm10.507-.864h-3.967c.785,3.653,2.4,6.776,5.047,8.111a5.393,5.393,0,0,0-.943,1.159c-2.887-1.651-4.556-5.047-5.42-9.27h-2.671c-.1,3.064-.687,6.815-3.083,9.348a4.407,4.407,0,0,0-1-.9c2.533-2.69,2.788-6.558,2.788-9.583v-6.913h9.25Zm-1.316-6.775h-6.618v5.518h6.618Z"/><path class="cls-4" d="M48.86,146.491c0,1.32.2,3.18,2.355,3.18,2.25,0,2.355-2.085,2.355-3.15v-5.535c0-1.125-.12-1.23-1.065-1.23v-.614h2.939v.614c-.929,0-1.034.12-1.034,1.23v5.685a4.043,4.043,0,0,1-.9,2.94,3.415,3.415,0,0,1-2.625.945c-3.51,0-3.87-2-3.87-4.005v-5.565c0-1.11-.09-1.23-1.095-1.23v-.614h4v.614c-.975,0-1.065.091-1.065,1.23Z"/><path class="cls-4" d="M59,149.7v2.865c0,1,.089,1.125.915,1.125v.525H56.36v-.525c.87,0,.93-.135.93-1.125V144.9c0-1-.045-1.14-.93-1.14v-.48a7.478,7.478,0,0,0,2.34-.719l.2.119.06.915h.029a2.8,2.8,0,0,1,2.25-1.034c1.755,0,3.061,1.394,3.061,3.9,0,3.45-1.951,4.05-3.195,4.05a2.761,2.761,0,0,1-2.07-.81Zm0-.885a2.194,2.194,0,0,0,1.694.975c1.755,0,1.77-2.535,1.77-3.375,0-.66-.029-3.09-1.739-3.09A2.319,2.319,0,0,0,59,144.391Z"/><path class="cls-4" d="M65.285,149.806c.96,0,1.034-.165,1.034-1.185v-7.679c0-.946-.074-1.081-1.034-1.081v-.48a8.039,8.039,0,0,0,2.534-.72l.21.12v9.855c0,1,.06,1.17.96,1.17v.525h-3.7Z"/><path class="cls-4" d="M69.92,146.491c0-2.265,1.08-3.929,3.7-3.929,2.8,0,3.7,1.875,3.7,3.929a4.108,4.108,0,0,1-1.02,3.12,3.768,3.768,0,0,1-2.684.915C71.42,150.526,69.92,149.416,69.92,146.491Zm1.8.045c0,1.515.27,3.375,1.889,3.375,1.5,0,1.891-1.56,1.891-3.375,0-1.695-.33-3.375-1.891-3.375C71.975,143.161,71.72,145.006,71.72,146.536Z"/><path class="cls-4" d="M83.029,144.781c0-1.155-.45-1.62-1.3-1.62a1.547,1.547,0,0,0-1.5,1.185.72.72,0,0,1-.78.511.577.577,0,0,1-.645-.616c0-.75.945-1.679,3.045-1.679,1.545,0,2.91.4,2.91,2.534v3.615c0,.78.165,1.095.48,1.095a.82.82,0,0,0,.435-.12l.12.51a3.376,3.376,0,0,1-1.32.225,1.2,1.2,0,0,1-1.335-.84h-.06a3.06,3.06,0,0,1-2.37.945,2.065,2.065,0,0,1-1.184-3.87,7.8,7.8,0,0,1,2.489-.93l1.02-.255Zm0,1.275c-1.35.405-2.79.96-2.79,2.22,0,1.185.766,1.395,1.275,1.395a2.084,2.084,0,0,0,1.515-.75Z"/><path class="cls-4" d="M91.774,143.326v-2.354c0-.946-.06-1.111-.96-1.111v-.48a6.761,6.761,0,0,0,2.46-.72l.21.106v10.049c0,.93.105,1,.825,1.02v.45a9.192,9.192,0,0,0-2.3.24l-.135-.105-.06-.825h-.03a2.645,2.645,0,0,1-2.07.915c-1.68,0-3.195-1.17-3.195-4.08,0-2.01.99-3.869,3.375-3.869a2.5,2.5,0,0,1,1.845.764Zm0,.93a1.968,1.968,0,0,0-1.545-1c-1.785,0-1.89,2.22-1.89,3.285,0,2.085.78,3.27,1.83,3.27a2.088,2.088,0,0,0,1.605-1.02Z"/><path class="cls-4" d="M101.959,142.666v5.97c0,1.035.075,1.17.96,1.17v.525h-3.7v-.525c.96,0,1.02-.135,1.02-1.185v-3.75c0-1.05-.045-1.11-1.02-1.11v-.48a7.77,7.77,0,0,0,2.55-.719Zm.075-2.085a1.036,1.036,0,0,1-1.02,1.14,1.139,1.139,0,1,1,1.02-1.14Z"/><path class="cls-4" d="M110.794,143.866a3.224,3.224,0,0,1,2.46-1.3c1.095,0,2.16.54,2.16,2.624v3.51c0,.99.09,1.11.8,1.11v.525h-3.285v-.525c.675,0,.78-.12.78-1.05v-3.45c0-1.02-.195-1.965-1.095-1.965-.675,0-1.215.511-1.725,1.29V148.7c0,1.02.09,1.11.78,1.11v.525h-3.255v-.525c.7,0,.765-.105.765-1.05v-3.405c0-.78-.045-2.01-1.08-2.01-.555,0-1.095.465-1.725,1.306v4.034c0,1.02.075,1.125.78,1.125v.525H103.7v-.525c.885,0,.96-.12.96-1.185V144.9c0-1.02-.09-1.155-.96-1.14v-.48a7.149,7.149,0,0,0,2.355-.719l.225.119.06,1.125h.015a3.287,3.287,0,0,1,2.37-1.244,1.915,1.915,0,0,1,2.01,1.3Z"/><path class="cls-4" d="M121.639,144.781c0-1.155-.45-1.62-1.3-1.62a1.547,1.547,0,0,0-1.5,1.185.721.721,0,0,1-.78.511.576.576,0,0,1-.645-.616c0-.75.945-1.679,3.045-1.679,1.545,0,2.909.4,2.909,2.534v3.615c0,.78.165,1.095.48,1.095a.818.818,0,0,0,.435-.12l.121.51a3.376,3.376,0,0,1-1.32.225,1.2,1.2,0,0,1-1.335-.84h-.06a3.06,3.06,0,0,1-2.37.945,2.065,2.065,0,0,1-1.185-3.87,7.808,7.808,0,0,1,2.49-.93l1.02-.255Zm0,1.275c-1.35.405-2.79.96-2.79,2.22,0,1.185.765,1.395,1.275,1.395a2.084,2.084,0,0,0,1.515-.75Z"/><path class="cls-4" d="M131.313,143.506a2.434,2.434,0,0,1,.78,1.845c0,1.905-1.484,2.82-3.27,2.82a4.124,4.124,0,0,1-1.56-.285c-.4.27-.645.525-.645.84,0,.435.435.66,1.321.66h1.71c2.414,0,3.209,1.065,3.209,2.205,0,1.62-1.695,2.79-4.245,2.79-2.234,0-3.7-.63-3.7-1.936,0-.974.9-1.649,1.8-1.994-.645-.15-1.261-.555-1.261-1.26,0-.72.616-1.17,1.275-1.545a2.618,2.618,0,0,1-1.275-2.28c0-1.785,1.411-2.8,3.3-2.8a3.993,3.993,0,0,1,1.994.479l2.13-.285v.87Zm-3.87,7.17a1.993,1.993,0,0,0-1.125,1.59c0,.915.916,1.514,2.371,1.514,1.739,0,2.759-.824,2.759-1.784,0-.63-.4-1.32-2.069-1.32Zm2.9-5.325c0-1.125-.48-2.19-1.576-2.19-1.049,0-1.574,1.065-1.574,2.19,0,1.335.6,2.205,1.605,2.205C129.873,147.556,130.339,146.6,130.339,145.351Z"/><path class="cls-4" d="M140.448,148.681a3.286,3.286,0,0,1-3.059,1.845c-1.845,0-3.66-.915-3.66-4.155,0-1.934,1.065-3.809,3.48-3.809,2.759,0,3.255,2.5,3.255,3.9h-4.92a4.567,4.567,0,0,0,.54,2.46,1.892,1.892,0,0,0,1.6.915,2.431,2.431,0,0,0,2.205-1.425Zm-1.739-2.835c0-.855-.136-2.685-1.516-2.685-.7,0-1.589.571-1.649,2.685Z"/><path class="cls-4" d="M141.948,148.081c.375,1.41,1.051,1.83,2.04,1.83,1.23,0,1.59-.795,1.59-1.305a1.062,1.062,0,0,0-.3-.78,7.259,7.259,0,0,0-1.529-.93,7.094,7.094,0,0,1-1.636-1.11,1.986,1.986,0,0,1-.5-1.29c0-.974.841-1.934,2.926-1.934a5.927,5.927,0,0,1,2.1.344c.06.451.12.946.285,1.71l-.555.1c-.255-1.2-.72-1.56-1.664-1.56-.571,0-1.426.27-1.426.99a1.235,1.235,0,0,0,.63.96c.48.27,1.2.555,1.575.81,1.215.63,1.875,1.4,1.875,2.3,0,1.275-1.14,2.31-3.18,2.31a5.98,5.98,0,0,1-2.46-.465c-.09-.66-.2-1.215-.329-1.86Z"/><path class="cls-4" d="M152.314,149.806c.869,0,.96-.135.96-1.185v-7.665c0-.974-.1-1.095-.946-1.095v-.48a8.469,8.469,0,0,0,2.445-.72l.21.12v5.071h.03a3.406,3.406,0,0,1,2.565-1.29c2.25,0,2.25,1.859,2.25,2.714v3.36c0,1,.075,1.17.825,1.17v.525h-3.345v-.525c.735,0,.81-.105.81-1.185v-3.285c0-.99-.06-2-1.185-2-.66,0-1.32.585-1.95,1.395v3.9c0,1.065.075,1.17.765,1.17v.525h-3.434Z"/><path class="cls-4" d="M168.228,148.681a3.288,3.288,0,0,1-3.06,1.845c-1.845,0-3.66-.915-3.66-4.155,0-1.934,1.065-3.809,3.48-3.809,2.76,0,3.255,2.5,3.255,3.9h-4.92a4.567,4.567,0,0,0,.54,2.46,1.892,1.892,0,0,0,1.6.915,2.43,2.43,0,0,0,2.205-1.425Zm-1.74-2.835c0-.855-.135-2.685-1.515-2.685-.705,0-1.59.571-1.65,2.685Z"/><path class="cls-4" d="M171.858,143.821h.03c.659-.87,1.2-1.259,1.965-1.259a1.3,1.3,0,0,1,1.35,1.244c0,.45-.225.75-.615.75-.315,0-.555-.18-.706-.585-.149-.435-.27-.585-.54-.585-.449,0-.9.5-1.454,1.29v3.96c0,1,.1,1.17,1.11,1.17v.525h-3.765v-.525c.87,0,.945-.105.945-1.17v-3.795c0-.975-.09-1.08-.945-1.08v-.48a6.648,6.648,0,0,0,2.37-.719l.194.119Z"/><path class="cls-4" d="M182.687,148.681a3.287,3.287,0,0,1-3.059,1.845c-1.846,0-3.661-.915-3.661-4.155,0-1.934,1.065-3.809,3.48-3.809,2.76,0,3.255,2.5,3.255,3.9h-4.92a4.576,4.576,0,0,0,.54,2.46,1.892,1.892,0,0,0,1.6.915,2.43,2.43,0,0,0,2.205-1.425Zm-1.74-2.835c0-.855-.135-2.685-1.515-2.685-.7,0-1.59.571-1.65,2.685Z"/><path class="cls-4" d="M185.867,149.521a.96.96,0,1,1-.96-.99A.963.963,0,0,1,185.867,149.521Z"/></g></g></svg>