<svg xmlns="http://www.w3.org/2000/svg" width="232.014" height="232.014" viewBox="0 0 232.014 232.014"><defs><style>.cls-1{fill:#efefef;stroke-miterlimit:10;}.cls-1,.cls-2{stroke:#fff;}.cls-2{fill:none;stroke-linejoin:round;stroke-width:3px;}.cls-3{fill:#3e3a39;}.cls-4{fill:#727171;}</style></defs><title>no-image</title><g id="レイヤー_2" data-name="レイヤー 2"><g id="レイヤー_1-2" data-name="レイヤー 1"><rect class="cls-1" x="0.5" y="0.5" width="231.014" height="231.014"/><path class="cls-2" d="M38.48,94.594H56.036v1.257H47.847v2.337H52.03v8.935H42.407V98.188h4.1V95.851H38.48Zm15.71,14.394V97.972l1.669.1c-.02.137-.118.235-.373.275v13.118h-1.3v-1.218H40.384v1.277h-1.3V97.972l1.669.1c-.019.137-.117.235-.373.275v10.643ZM43.546,99.327V102.1H46.59V99.327Zm0,3.849v2.808H46.59v-2.808Zm7.305-1.08V99.327H47.768V102.1Zm0,3.888v-2.808H47.768v2.808Z"/><path class="cls-2" d="M60.065,100.387A22.719,22.719,0,0,1,58,103.529a11.075,11.075,0,0,0-.647-1.276,26.828,26.828,0,0,0,4.32-8.857l1.551.491c-.058.138-.2.216-.452.216a38.694,38.694,0,0,1-1.511,3.888l.451.138c-.039.137-.137.216-.373.255v13.158H60.065Zm10.9,1.2a19.971,19.971,0,0,0,1.021,2.946,22.829,22.829,0,0,0,2.887-2.3l1.158.962a.52.52,0,0,1-.412.079,29.548,29.548,0,0,1-3.162,2.2,9.709,9.709,0,0,0,3.692,4.105,4.708,4.708,0,0,0-.883,1.08c-2.671-1.689-4.5-5.106-5.46-9.073h-.393a12.021,12.021,0,0,1-1.335.9,7.67,7.67,0,0,1,2.789,5.7c0,2-.963,3.359-2.946,3.359-.432,0-1-.02-1.571-.059a2.99,2.99,0,0,0-.334-1.159,14.326,14.326,0,0,0,1.65.1,1.816,1.816,0,0,0,1.256-.334,2.45,2.45,0,0,0,.747-2.022,4.968,4.968,0,0,0-.079-.9,23.8,23.8,0,0,1-6.618,3.869,4.574,4.574,0,0,0-.766-.982,20.327,20.327,0,0,0,7.07-4.026,7.1,7.1,0,0,0-.648-1.276,21.805,21.805,0,0,1-5.322,2.867,4.566,4.566,0,0,0-.707-.943,17.963,17.963,0,0,0,5.459-2.71,8.2,8.2,0,0,0-.923-.923,26.514,26.514,0,0,1-3.966,1.728,7.774,7.774,0,0,0-.727-.884,21.573,21.573,0,0,0,5.145-2.3H63.659v-3.1c-.235.216-.49.413-.746.609a3.251,3.251,0,0,0-.962-.746A14.723,14.723,0,0,0,66.369,93.3l1.552.255c-.02.138-.138.236-.393.236-.137.255-.3.51-.471.785h3.77a1.017,1.017,0,0,0,.55-.078l.962.628a.372.372,0,0,1-.274.137,13.77,13.77,0,0,1-1.355,1.906h4.556v4.418Zm-6.088-3.4v2.4h3.888v-2.4Zm4.359-1.021A10.608,10.608,0,0,0,70.4,95.615H66.33c-.392.511-.825,1.041-1.3,1.552Zm4.753,3.417v-2.4H69.963v2.4Z"/><path class="cls-2" d="M79.374,110.422c-.609-1.414-.845-4.34-.845-6.913a50.05,50.05,0,0,1,1.061-9.171l1.905.374a.507.507,0,0,1-.511.353,37.7,37.7,0,0,0-1.139,8.464,23.3,23.3,0,0,0,.177,3.712c.432-1.178,1.217-3.064,1.63-3.987l.884.825c-.648,1.336-2.023,4.321-2.023,5.243a2.7,2.7,0,0,0,.2.943Zm4.988-11.567c1.649.02,3.3.04,4.949-.078-.079-1.689-.138-3.142-.177-4.6l1.983.059c-.019.2-.2.354-.51.413.02,1.257.059,2.533.1,4.026a17.356,17.356,0,0,0,3.849-.786l.177,1.375a19,19,0,0,1-3.967.707c.078,2.179.176,4.477.236,5.734a14.491,14.491,0,0,1,4.006,2.494l-.766,1.257a11.812,11.812,0,0,0-3.181-2.239c-.02,1.669-.334,3.535-3.28,3.535-2.3,0-3.829-1.1-3.829-2.828,0-2,2.022-2.887,3.829-2.887a6.812,6.812,0,0,1,1.866.255c-.059-1.237-.177-3.3-.275-5.223-.609.039-1.434.059-2,.059H84.381Zm5.381,7.718a6.668,6.668,0,0,0-1.945-.353c-1.2,0-2.631.431-2.631,1.669,0,1.1,1.178,1.65,2.612,1.65,1.453,0,1.983-.707,1.983-2.279Z"/><path class="cls-2" d="M109.719,99.719c-.059.256-.118.511-.2.746,3.456.609,4.732,2.769,4.732,5.087,0,3.122-2.67,5.008-7.58,5.557a7.718,7.718,0,0,0-.53-1.178c4.065-.392,6.676-1.806,6.676-4.34v-.137c-.1-2.278-1.63-3.4-3.731-3.751a15.512,15.512,0,0,1-3.908,5.774,4.487,4.487,0,0,0,.511,1.06l-1.159.726a5.033,5.033,0,0,1-.471-.981,6.365,6.365,0,0,1-3.712,1.472,2.343,2.343,0,0,1-2.376-2.611c0-2.71,2.239-4.87,5.087-6.01-.04-1.021-.04-2.14-.02-3.3-3.319,0-3.673,0-4.321-.039l-.039-1.3c1,.059,2.71.059,4.4.059.02-.9.059-2,.1-2.927l1.964.138c-.019.2-.216.354-.511.393-.059.726-.1,1.63-.157,2.356a44.834,44.834,0,0,0,7.875-.825l.177,1.336a47.685,47.685,0,0,1-8.11.766c-.04,1.021-.06,2-.04,2.926a10.226,10.226,0,0,1,2.946-.452c.294,0,.55,0,.805.02.079-.314.138-.609.2-.923Zm-6.029,7.326a23.067,23.067,0,0,1-.57-4.6c-2.14.943-3.809,2.573-3.809,4.477,0,1.159.648,1.552,1.355,1.513A5.37,5.37,0,0,0,103.69,107.045Zm4.025-5.519A9.141,9.141,0,0,0,104.4,102a19.034,19.034,0,0,0,.451,4.045A12.869,12.869,0,0,0,107.715,101.526Z"/><path class="cls-2" d="M120.838,104.864a13.166,13.166,0,0,1-.57-3.692,35.043,35.043,0,0,1,.668-6.48l1.964.334c-.079.255-.314.314-.57.334a28.743,28.743,0,0,0-.667,5.714,7.653,7.653,0,0,0,.059,1.061,33.51,33.51,0,0,1,1.531-3.044,8.336,8.336,0,0,0,.766.864c-1.453,2.612-1.885,3.358-1.885,4.183a2.188,2.188,0,0,0,.059.491Zm10.526-10.683c-.02.236-.177.334-.511.432.138,1.709.334,4.557.334,6.815-.019,3.79-1.394,7.207-7.305,9.662a10.368,10.368,0,0,0-.982-1.139c5.361-2.043,6.794-5.283,6.794-8.5,0-2.415-.235-5.262-.451-7.364Z"/><path class="cls-2" d="M137.927,96.322c1.218.078,2.847.078,4.183.078.884,0,1.885-.019,2.71-.039-.02-.942-.039-2.042-.039-2.73l1.983.1c-.019.235-.2.353-.53.412-.02.315,0,1.826,0,2.16a38.536,38.536,0,0,0,6.52-.765l.176,1.3a40.259,40.259,0,0,1-6.7.746c.019,1.178.039,2.4.079,3.613a33.033,33.033,0,0,0,5.537-.766l.157,1.277a37.434,37.434,0,0,1-5.675.687l.157,3.28a21.834,21.834,0,0,1,5.774,3.063l-.865,1.2a19.1,19.1,0,0,0-4.87-2.886c0,.313.02.667.02.922-.02,1.866-1.139,2.946-3.515,2.946-2.494,0-4.321-1.021-4.321-2.867,0-1.885,2.141-2.926,4.34-2.926a8.614,8.614,0,0,1,2.062.236c-.019-.845-.058-1.866-.078-2.927-.628.02-1.335.04-1.905.04-3.358,0-4.3-.53-4.3-1.67,0-.746.57-1.355,1.827-2.16l.942.609c-.884.491-1.355.923-1.355,1.316,0,.589.923.707,3.417.707.432,0,.884,0,1.316-.02l-.118-3.633c-.844.039-1.826.039-2.71.039-1.257,0-3.044,0-4.222-.039Zm7.266,10.231a8.247,8.247,0,0,0-2.2-.314c-1.493,0-3,.609-3,1.787,0,1.159,1.375,1.728,3.083,1.728,1.552,0,2.141-.687,2.141-2.062Z"/><path class="cls-2" d="M169.843,93.985c0,.2-.137.3-.432.373.078,1.375.137,2.985.176,4.458,1.552-.255,3.044-.491,4.2-.667l.118,1.374c-1.178.118-2.71.334-4.3.589a24.214,24.214,0,0,1-.216,4.36,2.144,2.144,0,0,1-2.2,1.826,6.742,6.742,0,0,1-3.024-.864,8.639,8.639,0,0,0,.235-1.159,6.025,6.025,0,0,0,2.573.766c1.178,0,1.355-1.159,1.256-4.732-2.258.373-4.614.765-6.4,1.08.039,1.865.078,3.652.157,4.752.235,2.985,1.708,3.162,4.536,3.162a42.591,42.591,0,0,0,5.145-.3l.04,1.335a49.965,49.965,0,0,1-5.028.217c-3.044,0-5.715-.079-6.049-4.3-.1-1.1-.137-2.808-.176-4.635-1.218.216-2.828.53-3.829.727l-.217-1.316c1.041-.157,2.671-.451,4.026-.668-.019-1.708-.039-3.554-.039-5.047l1.944.177c-.02.216-.176.334-.491.373-.019,1.2-.019,2.769,0,4.242l6.363-1.06c-.059-1.67-.138-3.574-.255-5.165Z"/><path class="cls-2" d="M175.9,110.147c1.453-4.163,3.868-11.115,4.634-13.2.373-1.06.884-2.552,1.021-3.044l2.121.551c-.1.275-.373.373-.766.373-1.08,2.69-2.749,7.285-3.476,9.249h.02a6.275,6.275,0,0,1,4.3-2.415c1.708,0,2.533,1.158,2.474,2.985l-.059,2.336c-.019,1.473.766,2.278,2.043,2.278,1.767,0,3.4-2.022,4.3-5.4a9.169,9.169,0,0,0,1.277.726c-1.08,3.751-3.025,6.108-5.637,6.108a3.132,3.132,0,0,1-3.436-3.26c0-.373.059-2.18.059-2.592,0-1.237-.511-1.885-1.375-1.885-2.258,0-4.536,3.279-5.027,4.556-.275.687-.707,1.944-1.08,3.083Z"/><path class="cls-2" d="M63.777,122.992l4.905,8.865h.03v-7.02c0-1.11-.15-1.23-1.2-1.23v-.615h3.15v.615c-.975,0-1.11.12-1.11,1.23v9.495h-1.29l-5.34-9.6h-.03v7.6c0,1.11.1,1.245,1.14,1.245v.6H60.9v-.6c1.035,0,1.155-.135,1.155-1.245v-7.515c0-1.125-.1-1.215-1.17-1.215v-.615Z"/><path class="cls-2" d="M71.727,130.342c0-2.265,1.08-3.93,3.7-3.93,2.8,0,3.7,1.875,3.7,3.93a4.108,4.108,0,0,1-1.02,3.12,3.769,3.769,0,0,1-2.685.915C73.227,134.377,71.727,133.267,71.727,130.342Zm1.8.045c0,1.515.27,3.375,1.89,3.375,1.5,0,1.89-1.56,1.89-3.375,0-1.695-.33-3.375-1.89-3.375C73.782,127.012,73.527,128.857,73.527,130.387Z"/><path class="cls-2" d="M86.967,126.517v5.97c0,1.035.075,1.17.96,1.17v.525H84.222v-.525c.96,0,1.02-.135,1.02-1.185v-3.75c0-1.05-.045-1.11-1.02-1.11v-.48a7.772,7.772,0,0,0,2.55-.72Zm.075-2.085a1.036,1.036,0,0,1-1.02,1.14,1.139,1.139,0,1,1,1.02-1.14Z"/><path class="cls-2" d="M95.8,127.717a3.22,3.22,0,0,1,2.459-1.3c1.1,0,2.16.54,2.16,2.625v3.51c0,.99.09,1.11.795,1.11v.525H97.932v-.525c.675,0,.779-.12.779-1.05v-3.45c0-1.02-.194-1.965-1.094-1.965-.676,0-1.216.51-1.725,1.29v4.065c0,1.02.09,1.11.779,1.11v.525H93.417v-.525c.7,0,.765-.105.765-1.05V129.2c0-.78-.045-2.01-1.08-2.01-.555,0-1.095.465-1.725,1.305v4.035c0,1.02.075,1.125.78,1.125v.525h-3.45v-.525c.885,0,.96-.12.96-1.185v-3.72c0-1.02-.09-1.155-.96-1.14v-.48a7.128,7.128,0,0,0,2.355-.72l.225.12.06,1.125h.015a3.288,3.288,0,0,1,2.37-1.245,1.915,1.915,0,0,1,2.01,1.3Z"/><path class="cls-2" d="M106.647,128.632c0-1.155-.451-1.62-1.306-1.62a1.548,1.548,0,0,0-1.5,1.185.719.719,0,0,1-.779.51.575.575,0,0,1-.645-.615c0-.75.944-1.68,3.044-1.68,1.545,0,2.91.4,2.91,2.535v3.615c0,.78.165,1.095.48,1.095a.818.818,0,0,0,.435-.12l.12.51a3.368,3.368,0,0,1-1.32.225,1.2,1.2,0,0,1-1.334-.84h-.061a3.059,3.059,0,0,1-2.37.945,2.065,2.065,0,0,1-1.184-3.87,7.8,7.8,0,0,1,2.49-.93l1.02-.255Zm0,1.275c-1.351.405-2.79.96-2.79,2.22,0,1.185.765,1.395,1.274,1.395a2.088,2.088,0,0,0,1.516-.75Z"/><path class="cls-2" d="M116.321,127.357a2.434,2.434,0,0,1,.78,1.845c0,1.905-1.485,2.82-3.27,2.82a4.12,4.12,0,0,1-1.56-.285c-.405.27-.645.525-.645.84,0,.435.435.66,1.32.66h1.71c2.415,0,3.21,1.065,3.21,2.205,0,1.62-1.695,2.79-4.245,2.79-2.235,0-3.7-.63-3.7-1.936,0-.974.9-1.649,1.8-1.994-.645-.15-1.26-.555-1.26-1.26s.615-1.17,1.275-1.545a2.616,2.616,0,0,1-1.275-2.28c0-1.785,1.41-2.805,3.3-2.805a3.983,3.983,0,0,1,2,.48l2.13-.285v.87Zm-3.87,7.17a1.993,1.993,0,0,0-1.125,1.59c0,.915.915,1.514,2.37,1.514,1.74,0,2.76-.824,2.76-1.784,0-.63-.405-1.32-2.07-1.32Zm2.9-5.325c0-1.125-.48-2.19-1.575-2.19-1.05,0-1.575,1.065-1.575,2.19,0,1.335.6,2.205,1.605,2.205C114.881,131.407,115.346,130.447,115.346,129.2Z"/><path class="cls-2" d="M125.456,132.532a3.287,3.287,0,0,1-3.059,1.845c-1.846,0-3.661-.915-3.661-4.155,0-1.935,1.065-3.81,3.48-3.81,2.76,0,3.255,2.5,3.255,3.9h-4.92a4.576,4.576,0,0,0,.54,2.46,1.892,1.892,0,0,0,1.605.915,2.43,2.43,0,0,0,2.2-1.425Zm-1.74-2.835c0-.855-.135-2.685-1.515-2.685-.7,0-1.59.57-1.65,2.685Z"/><path class="cls-2" d="M126.956,131.932c.375,1.41,1.05,1.83,2.04,1.83,1.23,0,1.59-.795,1.59-1.305a1.062,1.062,0,0,0-.3-.78,7.246,7.246,0,0,0-1.53-.93,7.065,7.065,0,0,1-1.635-1.11,1.985,1.985,0,0,1-.495-1.29c0-.975.84-1.935,2.925-1.935a5.926,5.926,0,0,1,2.1.345c.06.45.12.945.285,1.71l-.555.1c-.255-1.2-.72-1.56-1.665-1.56-.57,0-1.425.27-1.425.99a1.233,1.233,0,0,0,.63.96c.48.27,1.2.555,1.575.81,1.215.63,1.875,1.4,1.875,2.3,0,1.275-1.14,2.31-3.18,2.31a5.973,5.973,0,0,1-2.46-.465c-.09-.66-.195-1.215-.33-1.86Z"/><path class="cls-2" d="M137.321,133.657c.87,0,.96-.135.96-1.185v-7.665c0-.975-.105-1.095-.945-1.095v-.48a8.542,8.542,0,0,0,2.445-.72l.21.12v5.07h.03a3.409,3.409,0,0,1,2.565-1.29c2.25,0,2.25,1.86,2.25,2.715v3.36c0,1,.075,1.17.825,1.17v.525h-3.345v-.525c.735,0,.81-.105.81-1.185v-3.285c0-.99-.06-2-1.185-2-.66,0-1.32.585-1.95,1.395v3.9c0,1.065.075,1.17.765,1.17v.525h-3.435Z"/><path class="cls-2" d="M153.235,132.532a3.286,3.286,0,0,1-3.059,1.845c-1.845,0-3.66-.915-3.66-4.155,0-1.935,1.065-3.81,3.48-3.81,2.759,0,3.255,2.5,3.255,3.9h-4.92a4.567,4.567,0,0,0,.54,2.46,1.892,1.892,0,0,0,1.6.915,2.431,2.431,0,0,0,2.205-1.425ZM151.5,129.7c0-.855-.136-2.685-1.515-2.685-.7,0-1.59.57-1.65,2.685Z"/><path class="cls-2" d="M156.865,127.672h.031c.659-.87,1.2-1.26,1.964-1.26a1.3,1.3,0,0,1,1.351,1.245c0,.45-.226.75-.616.75-.315,0-.554-.18-.705-.585-.15-.435-.27-.585-.54-.585-.45,0-.9.5-1.454,1.29v3.96c0,1,.105,1.17,1.109,1.17v.525h-3.764v-.525c.869,0,.945-.105.945-1.17v-3.795c0-.975-.09-1.08-.945-1.08v-.48a6.645,6.645,0,0,0,2.369-.72l.195.12Z"/><path class="cls-2" d="M167.7,132.532a3.288,3.288,0,0,1-3.06,1.845c-1.845,0-3.66-.915-3.66-4.155,0-1.935,1.065-3.81,3.48-3.81,2.76,0,3.255,2.5,3.255,3.9h-4.92a4.567,4.567,0,0,0,.54,2.46,1.892,1.892,0,0,0,1.6.915,2.43,2.43,0,0,0,2.2-1.425Zm-1.74-2.835c0-.855-.135-2.685-1.515-2.685-.7,0-1.59.57-1.65,2.685Z"/><path class="cls-2" d="M170.875,133.372a.96.96,0,1,1-.96-.99A.963.963,0,0,1,170.875,133.372Z"/><path class="cls-3" d="M38.479,94.593H56.035V95.85H47.846v2.337h4.183v8.936H42.406V98.187h4.105V95.85H38.479ZM54.19,108.988V97.971l1.668.1c-.019.138-.117.236-.373.275v13.118h-1.3v-1.217H40.384v1.277h-1.3V97.971l1.67.1c-.02.138-.118.236-.373.275v10.644ZM43.545,99.326V102.1h3.044V99.326Zm0,3.849v2.808h3.044v-2.808Zm7.306-1.08V99.326H47.768V102.1Zm0,3.888v-2.808H47.768v2.808Z"/><path class="cls-3" d="M60.065,100.387A22.933,22.933,0,0,1,58,103.529a11.1,11.1,0,0,0-.648-1.277,26.793,26.793,0,0,0,4.32-8.856l1.552.49c-.059.138-.2.217-.452.217a38.794,38.794,0,0,1-1.512,3.888l.452.137c-.04.138-.138.216-.374.255v13.158H60.065Zm10.9,1.2a20.075,20.075,0,0,0,1.021,2.945,22.844,22.844,0,0,0,2.887-2.3l1.159.962a.526.526,0,0,1-.413.079,29.778,29.778,0,0,1-3.161,2.2,9.7,9.7,0,0,0,3.691,4.1,4.751,4.751,0,0,0-.883,1.08c-2.671-1.689-4.5-5.106-5.459-9.072h-.393a12.274,12.274,0,0,1-1.336.9,7.668,7.668,0,0,1,2.789,5.7c0,2-.962,3.358-2.946,3.358-.432,0-1-.019-1.571-.059a2.971,2.971,0,0,0-.333-1.159,14.1,14.1,0,0,0,1.649.1,1.822,1.822,0,0,0,1.257-.333,2.454,2.454,0,0,0,.746-2.023,4.95,4.95,0,0,0-.079-.9,23.794,23.794,0,0,1-6.617,3.868,4.6,4.6,0,0,0-.766-.982,20.32,20.32,0,0,0,7.069-4.025,7.132,7.132,0,0,0-.647-1.277,21.76,21.76,0,0,1-5.323,2.867,4.5,4.5,0,0,0-.707-.942,18,18,0,0,0,5.46-2.71,8.2,8.2,0,0,0-.923-.923,26.777,26.777,0,0,1-3.967,1.728,7.5,7.5,0,0,0-.727-.884,21.556,21.556,0,0,0,5.145-2.3H63.659v-3.1c-.236.216-.491.412-.746.608a3.259,3.259,0,0,0-.963-.746A14.717,14.717,0,0,0,66.369,93.3l1.551.255c-.019.138-.137.236-.393.236-.137.256-.294.511-.471.786h3.771a1,1,0,0,0,.55-.079l.962.629a.377.377,0,0,1-.275.137,13.739,13.739,0,0,1-1.355,1.905h4.556v4.419Zm-6.087-3.4v2.4h3.888v-2.4Zm4.359-1.021A10.573,10.573,0,0,0,70.4,95.614H66.33c-.393.511-.825,1.041-1.3,1.552Zm4.752,3.417v-2.4H69.963v2.4Z"/><path class="cls-3" d="M79.374,110.421c-.609-1.413-.845-4.339-.845-6.912a50.032,50.032,0,0,1,1.06-9.171l1.905.373a.507.507,0,0,1-.511.354,37.752,37.752,0,0,0-1.138,8.464,23.162,23.162,0,0,0,.177,3.711c.432-1.178,1.217-3.063,1.629-3.986l.884.825c-.648,1.335-2.023,4.32-2.023,5.243a2.69,2.69,0,0,0,.2.943Zm4.987-11.566c1.65.02,3.3.039,4.949-.079-.078-1.689-.137-3.142-.177-4.595l1.984.059c-.02.2-.2.353-.51.412.019,1.257.058,2.534.1,4.026a17.418,17.418,0,0,0,3.849-.785l.177,1.374a18.87,18.87,0,0,1-3.968.707c.079,2.18.177,4.478.236,5.735a14.415,14.415,0,0,1,4.006,2.494l-.766,1.257a11.768,11.768,0,0,0-3.181-2.239c-.02,1.669-.334,3.534-3.28,3.534-2.3,0-3.829-1.1-3.829-2.827,0-2,2.023-2.887,3.829-2.887a6.774,6.774,0,0,1,1.866.255c-.059-1.237-.177-3.3-.275-5.224-.609.039-1.433.059-2,.059H84.381Zm5.381,7.717a6.661,6.661,0,0,0-1.944-.353c-1.2,0-2.631.432-2.631,1.669,0,1.1,1.178,1.65,2.611,1.65,1.454,0,1.984-.707,1.984-2.278Z"/><path class="cls-3" d="M109.718,99.719c-.059.255-.118.511-.2.746,3.456.609,4.732,2.769,4.732,5.086,0,3.123-2.67,5.008-7.58,5.558a7.487,7.487,0,0,0-.53-1.178c4.065-.393,6.677-1.807,6.677-4.34v-.138c-.1-2.278-1.63-3.4-3.731-3.751a15.523,15.523,0,0,1-3.908,5.774,4.429,4.429,0,0,0,.51,1.06l-1.158.727a5.043,5.043,0,0,1-.471-.982,6.366,6.366,0,0,1-3.712,1.473,2.343,2.343,0,0,1-2.376-2.612c0-2.71,2.238-4.87,5.086-6.009-.039-1.022-.039-2.141-.02-3.3-3.319,0-3.672,0-4.32-.039l-.039-1.3c1,.059,2.71.059,4.4.059.019-.9.058-2,.1-2.926l1.964.138c-.02.2-.217.353-.511.392-.059.727-.1,1.63-.157,2.357a44.95,44.95,0,0,0,7.875-.825l.176,1.335a47.767,47.767,0,0,1-8.11.767c-.039,1.021-.059,2-.039,2.925a10.207,10.207,0,0,1,2.945-.451c.3,0,.55,0,.806.019.078-.314.137-.608.2-.923Zm-6.028,7.325a22.909,22.909,0,0,1-.57-4.595c-2.141.942-3.81,2.572-3.81,4.477,0,1.159.648,1.552,1.355,1.512A5.366,5.366,0,0,0,103.69,107.044Zm4.025-5.519A9.193,9.193,0,0,0,104.4,102a19.111,19.111,0,0,0,.452,4.046A12.9,12.9,0,0,0,107.715,101.525Z"/><path class="cls-3" d="M120.837,104.864a13.17,13.17,0,0,1-.569-3.692,34.948,34.948,0,0,1,.668-6.48l1.963.333c-.078.256-.314.314-.569.334a28.673,28.673,0,0,0-.668,5.715,7.8,7.8,0,0,0,.059,1.06,33.768,33.768,0,0,1,1.532-3.044,8.234,8.234,0,0,0,.766.865c-1.454,2.612-1.886,3.358-1.886,4.182a2.249,2.249,0,0,0,.059.492Zm10.526-10.683c-.019.236-.176.334-.51.432.137,1.708.334,4.556.334,6.814-.02,3.79-1.394,7.207-7.306,9.662a10.446,10.446,0,0,0-.982-1.139c5.362-2.042,6.795-5.282,6.795-8.5,0-2.416-.235-5.263-.452-7.364Z"/><path class="cls-3" d="M137.926,96.321c1.218.079,2.848.079,4.183.079.884,0,1.886-.02,2.71-.039-.019-.943-.039-2.043-.039-2.73l1.984.1c-.02.236-.2.354-.531.413-.019.314,0,1.826,0,2.16a38.533,38.533,0,0,0,6.52-.766l.177,1.3a40.166,40.166,0,0,1-6.7.746c.02,1.178.04,2.4.079,3.614a33.149,33.149,0,0,0,5.538-.766l.157,1.276a37.334,37.334,0,0,1-5.675.688l.157,3.279a21.806,21.806,0,0,1,5.773,3.064l-.864,1.2a19.129,19.129,0,0,0-4.87-2.887c0,.314.019.668.019.923-.019,1.866-1.138,2.946-3.515,2.946-2.494,0-4.32-1.022-4.32-2.867,0-1.886,2.141-2.927,4.34-2.927a8.625,8.625,0,0,1,2.062.236c-.02-.844-.059-1.866-.078-2.926-.629.02-1.336.039-1.906.039-3.357,0-4.3-.53-4.3-1.669,0-.746.569-1.355,1.826-2.16l.943.609c-.884.49-1.355.923-1.355,1.316,0,.588.923.706,3.417.706.432,0,.883,0,1.316-.019l-.118-3.633c-.845.039-1.827.039-2.711.039-1.256,0-3.043,0-4.222-.039Zm7.266,10.232a8.247,8.247,0,0,0-2.2-.314c-1.492,0-3,.609-3,1.787,0,1.159,1.375,1.728,3.084,1.728,1.551,0,2.14-.687,2.14-2.062Z"/><path class="cls-3" d="M169.842,93.984c0,.2-.137.3-.432.374.079,1.375.138,2.985.177,4.458,1.552-.256,3.044-.491,4.2-.668l.117,1.375c-1.178.117-2.71.334-4.3.588a24.2,24.2,0,0,1-.216,4.36,2.144,2.144,0,0,1-2.2,1.826,6.739,6.739,0,0,1-3.024-.863,8.516,8.516,0,0,0,.235-1.159,6.033,6.033,0,0,0,2.573.766c1.178,0,1.355-1.159,1.257-4.733-2.258.373-4.615.766-6.4,1.08.039,1.866.079,3.653.157,4.753.236,2.985,1.709,3.161,4.536,3.161a42.807,42.807,0,0,0,5.146-.294l.039,1.335a50.255,50.255,0,0,1-5.027.216c-3.044,0-5.715-.078-6.049-4.3-.1-1.1-.137-2.808-.176-4.634-1.218.216-2.828.53-3.83.726l-.216-1.315c1.041-.157,2.671-.452,4.026-.668-.02-1.709-.039-3.554-.039-5.047l1.944.177c-.02.216-.177.334-.491.373-.02,1.2-.02,2.769,0,4.241l6.362-1.06c-.059-1.669-.137-3.574-.255-5.165Z"/><path class="cls-3" d="M175.9,110.147c1.453-4.164,3.869-11.116,4.634-13.2.373-1.061.884-2.553,1.022-3.044l2.12.55c-.1.275-.373.373-.765.373-1.08,2.691-2.75,7.286-3.476,9.25h.019a6.28,6.28,0,0,1,4.3-2.416c1.709,0,2.533,1.159,2.475,2.985l-.059,2.337c-.02,1.473.766,2.278,2.042,2.278,1.768,0,3.4-2.023,4.3-5.4a9.167,9.167,0,0,0,1.276.727c-1.08,3.751-3.024,6.107-5.636,6.107a3.131,3.131,0,0,1-3.437-3.259c0-.373.06-2.18.06-2.593,0-1.237-.511-1.885-1.375-1.885-2.259,0-4.537,3.28-5.028,4.556-.275.688-.707,1.945-1.08,3.083Z"/><path class="cls-4" d="M63.776,122.992l4.9,8.865h.03v-7.02c0-1.11-.149-1.23-1.2-1.23v-.615h3.15v.615c-.975,0-1.11.12-1.11,1.23v9.494h-1.29l-5.34-9.6h-.029v7.6c0,1.109.1,1.244,1.139,1.244v.6H60.9v-.6c1.035,0,1.155-.135,1.155-1.244v-7.515c0-1.125-.1-1.215-1.17-1.215v-.615Z"/><path class="cls-4" d="M71.727,130.341c0-2.265,1.08-3.929,3.7-3.929,2.8,0,3.7,1.875,3.7,3.929a4.11,4.11,0,0,1-1.02,3.121,3.77,3.77,0,0,1-2.684.914C73.227,134.376,71.727,133.266,71.727,130.341Zm1.8.045c0,1.515.27,3.375,1.89,3.375,1.5,0,1.89-1.56,1.89-3.375,0-1.694-.33-3.375-1.89-3.375C73.782,127.011,73.527,128.857,73.527,130.386Z"/><path class="cls-4" d="M86.966,126.517v5.969c0,1.035.075,1.17.96,1.17v.525h-3.7v-.525c.96,0,1.02-.135,1.02-1.185v-3.75c0-1.05-.045-1.11-1.02-1.11v-.48a7.739,7.739,0,0,0,2.55-.719Zm.075-2.085a1.035,1.035,0,0,1-1.019,1.139,1.138,1.138,0,1,1,1.019-1.139Z"/><path class="cls-4" d="M95.8,127.716a3.224,3.224,0,0,1,2.46-1.3c1.095,0,2.16.54,2.16,2.624v3.51c0,.99.09,1.11.795,1.11v.525H97.931v-.525c.675,0,.78-.12.78-1.049v-3.451c0-1.02-.195-1.964-1.095-1.964-.675,0-1.215.51-1.725,1.29v4.064c0,1.021.09,1.11.78,1.11v.525H93.416v-.525c.7,0,.765-.105.765-1.049V129.2c0-.78-.045-2.009-1.08-2.009-.555,0-1.095.464-1.725,1.305v4.034c0,1.02.075,1.125.78,1.125v.525H88.707v-.525c.884,0,.96-.12.96-1.185v-3.719c0-1.02-.091-1.156-.96-1.141v-.48a7.151,7.151,0,0,0,2.354-.719l.225.119.06,1.125h.015a3.287,3.287,0,0,1,2.37-1.244,1.915,1.915,0,0,1,2.01,1.3Z"/><path class="cls-4" d="M106.646,128.631c0-1.154-.45-1.62-1.305-1.62a1.548,1.548,0,0,0-1.5,1.185.721.721,0,0,1-.78.511.576.576,0,0,1-.645-.616c0-.75.945-1.679,3.045-1.679,1.545,0,2.91.4,2.91,2.534v3.615c0,.78.165,1.095.48,1.095a.82.82,0,0,0,.435-.12l.12.51a3.376,3.376,0,0,1-1.32.225,1.2,1.2,0,0,1-1.335-.84h-.06a3.06,3.06,0,0,1-2.37.945,2.065,2.065,0,0,1-1.185-3.87,7.832,7.832,0,0,1,2.49-.93l1.02-.255Zm0,1.275c-1.35.406-2.79.96-2.79,2.221,0,1.184.765,1.394,1.275,1.394a2.084,2.084,0,0,0,1.515-.75Z"/><path class="cls-4" d="M116.32,127.357a2.429,2.429,0,0,1,.781,1.844c0,1.906-1.485,2.82-3.27,2.82a4.12,4.12,0,0,1-1.56-.285c-.405.27-.645.525-.645.84,0,.435.435.66,1.32.66h1.71c2.414,0,3.209,1.065,3.209,2.205,0,1.62-1.695,2.79-4.244,2.79-2.235,0-3.7-.63-3.7-1.935,0-.975.9-1.65,1.8-2-.645-.15-1.26-.555-1.26-1.26s.615-1.17,1.275-1.545a2.616,2.616,0,0,1-1.275-2.28c0-1.784,1.41-2.8,3.3-2.8a3.986,3.986,0,0,1,2,.48l2.129-.285v.87Zm-3.869,7.169a1.993,1.993,0,0,0-1.125,1.59c0,.915.915,1.515,2.37,1.515,1.74,0,2.76-.825,2.76-1.785,0-.63-.405-1.32-2.07-1.32Zm2.9-5.325c0-1.125-.48-2.19-1.575-2.19-1.05,0-1.575,1.065-1.575,2.19,0,1.335.6,2.205,1.605,2.205C114.88,131.406,115.346,130.446,115.346,129.2Z"/><path class="cls-4" d="M125.456,132.531a3.288,3.288,0,0,1-3.06,1.845c-1.845,0-3.66-.914-3.66-4.155,0-1.934,1.065-3.809,3.48-3.809,2.76,0,3.255,2.5,3.255,3.9h-4.92a4.563,4.563,0,0,0,.54,2.459,1.892,1.892,0,0,0,1.605.915,2.43,2.43,0,0,0,2.2-1.425Zm-1.74-2.835c0-.855-.135-2.685-1.515-2.685-.7,0-1.59.571-1.65,2.685Z"/><path class="cls-4" d="M126.956,131.931c.375,1.41,1.05,1.83,2.04,1.83,1.23,0,1.59-.795,1.59-1.305a1.062,1.062,0,0,0-.3-.78,7.289,7.289,0,0,0-1.53-.93,7,7,0,0,1-1.635-1.11,1.981,1.981,0,0,1-.495-1.29c0-.974.84-1.934,2.925-1.934a5.941,5.941,0,0,1,2.1.344c.061.451.121.946.286,1.71l-.556.1c-.254-1.2-.719-1.56-1.664-1.56-.57,0-1.425.27-1.425.991a1.235,1.235,0,0,0,.629.96c.48.27,1.2.554,1.576.81,1.215.629,1.875,1.4,1.875,2.3,0,1.274-1.14,2.309-3.181,2.309a5.971,5.971,0,0,1-2.459-.465c-.09-.66-.195-1.215-.33-1.86Z"/><path class="cls-4" d="M137.321,133.656c.869,0,.96-.135.96-1.185v-7.664c0-.975-.105-1.095-.945-1.095v-.48a8.536,8.536,0,0,0,2.444-.72l.21.12v5.07h.031a3.408,3.408,0,0,1,2.565-1.29c2.25,0,2.25,1.86,2.25,2.715v3.359c0,1.005.074,1.17.824,1.17v.525h-3.345v-.525c.735,0,.811-.105.811-1.185v-3.284c0-.991-.061-2-1.186-2-.66,0-1.319.584-1.95,1.395v3.9c0,1.065.075,1.17.765,1.17v.525h-3.434Z"/><path class="cls-4" d="M153.235,132.531a3.288,3.288,0,0,1-3.06,1.845c-1.845,0-3.66-.914-3.66-4.155,0-1.934,1.065-3.809,3.48-3.809,2.76,0,3.255,2.5,3.255,3.9h-4.92a4.563,4.563,0,0,0,.54,2.459,1.892,1.892,0,0,0,1.6.915,2.43,2.43,0,0,0,2.205-1.425ZM151.5,129.7c0-.855-.135-2.685-1.515-2.685-.7,0-1.59.571-1.65,2.685Z"/><path class="cls-4" d="M156.865,127.671h.03c.66-.87,1.2-1.259,1.965-1.259a1.3,1.3,0,0,1,1.35,1.244c0,.451-.225.75-.615.75-.315,0-.555-.179-.705-.585-.15-.435-.27-.585-.54-.585-.45,0-.9.5-1.455,1.29v3.96c0,1.005.1,1.17,1.11,1.17v.525H154.24v-.525c.87,0,.945-.105.945-1.17v-3.794c0-.976-.09-1.081-.945-1.081v-.48a6.628,6.628,0,0,0,2.37-.719l.195.119Z"/><path class="cls-4" d="M167.694,132.531a3.286,3.286,0,0,1-3.059,1.845c-1.845,0-3.66-.914-3.66-4.155,0-1.934,1.065-3.809,3.48-3.809,2.759,0,3.255,2.5,3.255,3.9h-4.92a4.563,4.563,0,0,0,.54,2.459,1.892,1.892,0,0,0,1.6.915,2.431,2.431,0,0,0,2.2-1.425Zm-1.739-2.835c0-.855-.136-2.685-1.515-2.685-.7,0-1.59.571-1.65,2.685Z"/><path class="cls-4" d="M170.875,133.371a.96.96,0,1,1-1.92,0,.96.96,0,1,1,1.92,0Z"/></g></g></svg>